<svg width="256" height="256" viewBox="0 0 256 256" xmlns="http://www.w3.org/2000/svg" role="img" aria-labelledby="logoTitle logoDesc">
  <title id="logoTitle">Mensa Empresarios Logo</title>
  <desc id="logoDesc">Rounded square blue mark with ME monogram and orbit ring</desc>

  <defs>
    <linearGradient id="brandFill" x1="34" y1="34" x2="222" y2="222" gradientUnits="userSpaceOnUse">
      <stop stop-color="#0A66C2"/>
      <stop offset="1" stop-color="#0E4E96"/>
    </linearGradient>
    <linearGradient id="shine" x1="58" y1="50" x2="180" y2="162" gradientUnits="userSpaceOnUse">
      <stop stop-color="#FFFFFF" stop-opacity="0.95"/>
      <stop offset="1" stop-color="#DCEBFF" stop-opacity="0.9"/>
    </linearGradient>
  </defs>

  <rect x="24" y="24" width="208" height="208" rx="48" fill="url(#brandFill)"/>
  <rect x="34" y="34" width="188" height="188" rx="40" fill="none" stroke="#8BC1FF" stroke-opacity="0.48" stroke-width="3"/>

  <path d="M66 86H89L114 132L139 86H162V176H139V126L114 170L89 126V176H66V86Z" fill="url(#shine)"/>
  <path d="M98 95H189V113H120V125H174V143H120V158H191V176H98V95Z" fill="#093D75"/>

  <circle cx="178" cy="74" r="18" fill="none" stroke="#E9F4FF" stroke-width="5" stroke-opacity="0.92"/>
  <circle cx="178" cy="74" r="6" fill="#E9F4FF"/>

  <path d="M56 204C77 189 101 182 128 182C155 182 179 189 200 204" fill="none" stroke="#DAEDFF" stroke-opacity="0.72" stroke-width="6" stroke-linecap="round"/>
</svg>
